<svg xmlns="http://www.w3.org/2000/svg" xmlns:xlink="http://www.w3.org/1999/xlink" width="220" zoomAndPan="magnify" viewBox="0 0 165 30.000001" height="40" preserveAspectRatio="xMidYMid meet" version="1.0"><defs><g/><clipPath id="0aabc39141"><path d="M 2.660156 0 L 86 0 L 86 29.03125 L 2.660156 29.03125 Z M 2.660156 0 " clip-rule="nonzero"/></clipPath><clipPath id="a704d69e1b"><path d="M 117 3 L 162.335938 3 L 162.335938 29.03125 L 117 29.03125 Z M 117 3 " clip-rule="nonzero"/></clipPath></defs><g clip-path="url(#0aabc39141)"><path stroke-linecap="butt" transform="matrix(0.725806, 0, 0, 0.725806, 1.575482, -0.362901)" fill="none" stroke-linejoin="miter" d="M 10.643745 17.388539 C 11.370308 17.232463 12.005377 17.054859 12.548953 16.861109 C 13.097912 16.661977 13.598433 16.419789 14.06128 16.129164 C 14.524127 15.833157 14.965446 15.472567 15.385238 15.042011 C 15.80503 14.611456 16.257113 14.084025 16.741488 13.45972 L 19.766141 13.45972 L 18.915794 17.388539 L 21.20312 17.388539 L 20.826384 19.352949 L 18.506766 19.352949 L 17.30121 25.073956 C 17.204335 25.520657 17.128988 25.924303 17.064405 26.274129 C 17.010585 26.629338 16.978294 26.903817 16.978294 27.092185 C 16.978294 27.485067 17.123606 27.732636 17.403467 27.829511 C 17.68871 27.926386 18.221523 27.974824 19.007287 27.974824 L 18.560585 29.998435 C 18.431419 30.036109 18.221523 30.0684 17.930898 30.084546 C 17.651037 30.106074 17.338884 30.127602 16.99444 30.159893 C 16.655377 30.192185 16.305551 30.213713 15.939578 30.224477 C 15.578988 30.229859 15.261453 30.235241 14.986974 30.235241 C 14.497217 30.235241 14.018224 30.202949 13.549995 30.127602 C 13.081766 30.063018 12.661974 29.92847 12.29062 29.718574 C 11.919266 29.51406 11.617877 29.218053 11.397217 28.825171 C 11.171176 28.432289 11.058155 27.904859 11.058155 27.24288 C 11.058155 27.011456 11.074301 26.715449 11.10121 26.360241 C 11.12812 26.010414 11.192703 25.617532 11.29496 25.186977 L 12.527426 19.352949 L 10.234717 19.352949 Z M 25.777773 19.266838 L 25.987669 19.266838 C 26.359023 18.895484 26.789579 18.551039 27.273954 18.244268 C 27.682981 17.964407 28.172738 17.716838 28.743224 17.506942 C 29.31371 17.291664 29.943398 17.184025 30.648433 17.184025 C 31.66562 17.184025 32.505204 17.442359 33.167183 17.964407 C 33.834544 18.481074 34.168224 19.186109 34.168224 20.090275 C 34.168224 20.359372 34.141315 20.671525 34.076731 21.01597 C 34.022912 21.34965 33.952947 21.710241 33.872217 22.092359 C 33.791488 22.474477 33.710759 22.856595 33.619266 23.238713 C 33.533155 23.620831 33.46319 23.970657 33.403988 24.277428 L 32.171523 29.998435 L 26.224474 29.998435 L 27.833676 22.34531 C 27.871349 22.092359 27.919787 21.834025 27.978988 21.57031 C 28.03819 21.306595 28.070481 21.064407 28.070481 20.849129 C 28.070481 20.558504 27.995134 20.316317 27.849822 20.133331 C 27.699127 19.944963 27.478467 19.85347 27.187842 19.85347 C 26.838016 19.85347 26.498954 19.977254 26.170655 20.230206 C 25.85312 20.488539 25.605551 20.709199 25.427947 20.908331 L 23.495828 29.998435 L 17.505724 29.998435 L 21.676731 10.284372 L 27.682981 10.284372 Z M 34.109023 18.47031 C 35.104683 17.985935 36.127252 17.630727 37.171349 17.404685 C 38.220829 17.178643 39.383329 17.065622 40.674995 17.065622 C 41.928988 17.065622 42.967704 17.167879 43.791141 17.361629 C 44.609197 17.555379 45.265794 17.840622 45.750169 18.211977 C 46.239926 18.583331 46.578988 19.019268 46.772738 19.530553 C 46.97187 20.036456 47.068745 20.612324 47.068745 21.258157 C 47.068745 21.629511 47.047218 22.027775 46.99878 22.458331 C 46.950343 22.888886 46.896523 23.254859 46.837322 23.550866 L 45.459544 29.998435 L 40.739579 29.998435 L 40.206766 28.125518 L 40.029162 28.125518 C 39.404856 28.809025 38.678294 29.331074 37.844092 29.691664 C 37.015273 30.052255 36.191836 30.235241 35.368398 30.235241 C 34.900169 30.235241 34.437322 30.165275 33.985238 30.030727 C 33.538537 29.890796 33.134891 29.6809 32.785065 29.401039 C 32.435238 29.115796 32.155377 28.755206 31.940099 28.319268 C 31.724822 27.872567 31.617183 27.339755 31.617183 26.715449 C 31.617183 25.698261 31.891662 24.89097 32.446002 24.293574 C 33.005724 23.696178 33.737669 23.249477 34.647217 22.948088 C 35.556766 22.641317 36.584717 22.452949 37.72569 22.37222 C 38.872044 22.296873 40.018398 22.259199 41.175516 22.259199 C 41.21319 22.065449 41.261627 21.785588 41.320829 21.419616 C 41.38003 21.059025 41.412322 20.741491 41.412322 20.467011 C 41.412322 20.117185 41.320829 19.788886 41.132461 19.487497 C 40.944093 19.180727 40.561974 19.030032 39.975343 19.030032 C 39.291836 19.030032 38.785933 19.229164 38.463016 19.63281 C 38.140099 20.031074 37.930204 20.515449 37.833329 21.085935 L 33.549301 21.085935 Z M 40.852599 23.631595 L 40.325169 23.631595 C 39.754683 23.631595 39.270308 23.706942 38.872044 23.857636 C 38.47378 24.002949 38.150863 24.196699 37.903294 24.428123 C 37.661106 24.664928 37.47812 24.928643 37.359717 25.22465 C 37.246697 25.515275 37.187495 25.8059 37.187495 26.096525 C 37.187495 26.570136 37.31128 26.925345 37.553467 27.156768 C 37.795655 27.393574 38.08628 27.506595 38.419961 27.506595 C 38.828988 27.506595 39.232634 27.361282 39.63628 27.070657 C 40.034544 26.77465 40.287495 26.381768 40.378988 25.897393 Z M 49.652079 29.998435 L 44.899822 29.998435 L 49.065447 10.284372 L 55.077079 10.284372 L 53.17187 19.266838 L 53.376384 19.266838 C 54.022218 18.524129 54.74878 17.991317 55.561454 17.6684 C 56.374127 17.345484 57.181419 17.184025 57.983329 17.184025 C 58.666836 17.184025 59.237322 17.286282 59.694787 17.490796 C 60.157634 17.69531 60.523607 17.975171 60.798086 18.330379 C 61.067183 18.680206 61.266315 19.099997 61.384718 19.589754 C 61.50312 20.074129 61.562322 20.590796 61.562322 21.139754 C 61.562322 21.414234 61.540794 21.823261 61.497739 22.37222 C 61.460065 22.921178 61.368572 23.53472 61.234023 24.207463 C 61.099475 24.880206 60.905725 25.574477 60.647391 26.290275 C 60.39444 27.000692 60.055377 27.651907 59.635586 28.238539 C 59.215794 28.825171 58.688363 29.304164 58.053294 29.675518 C 57.418225 30.052255 56.65937 30.235241 55.782113 30.235241 C 55.254683 30.235241 54.738016 30.176039 54.237495 30.057636 C 53.742357 29.944616 53.290273 29.788539 52.892009 29.589407 C 52.488363 29.395657 52.138537 29.169616 51.831766 28.9059 C 51.530377 28.636803 51.3151 28.367706 51.180551 28.093227 L 50.970655 28.093227 Z M 52.961975 27.388192 C 53.435586 27.388192 53.828468 27.140623 54.135238 26.640102 C 54.452773 26.144963 54.705725 25.558331 54.904857 24.885588 C 55.098607 24.207463 55.238537 23.53472 55.324648 22.861977 C 55.416141 22.183852 55.459197 21.677949 55.459197 21.34965 C 55.459197 20.956768 55.394613 20.633852 55.265447 20.3809 C 55.141662 20.127949 54.910238 19.998782 54.58194 19.998782 C 54.189058 19.998782 53.828468 20.138713 53.489405 20.423956 C 53.161107 20.709199 52.918919 20.946004 52.762843 21.139754 L 51.616488 26.392532 C 51.756419 26.623956 51.934023 26.849998 52.160065 27.065275 C 52.386106 27.280553 52.649822 27.388192 52.961975 27.388192 Z M 61.470829 18.47031 C 62.466489 17.985935 63.489058 17.630727 64.533155 17.404685 C 65.582634 17.178643 66.745134 17.065622 68.036801 17.065622 C 69.290794 17.065622 70.329509 17.167879 71.152947 17.361629 C 71.971002 17.555379 72.6276 17.840622 73.111975 18.211977 C 73.601732 18.583331 73.940794 19.019268 74.139926 19.530553 C 74.333676 20.036456 74.430551 20.612324 74.430551 21.258157 C 74.430551 21.629511 74.409023 22.027775 74.360586 22.458331 C 74.312148 22.888886 74.258329 23.254859 74.204509 23.550866 L 72.82135 29.998435 L 68.101384 29.998435 L 67.568572 28.125518 L 67.390968 28.125518 C 66.766662 28.809025 66.0401 29.331074 65.205898 29.691664 C 64.377079 30.052255 63.553641 30.235241 62.730204 30.235241 C 62.261975 30.235241 61.804509 30.165275 61.347044 30.030727 C 60.900343 29.890796 60.496697 29.6809 60.14687 29.401039 C 59.797044 29.115796 59.517183 28.755206 59.301905 28.319268 C 59.086627 27.872567 58.978988 27.339755 58.978988 26.715449 C 58.978988 25.698261 59.253468 24.89097 59.807808 24.293574 C 60.36753 23.696178 61.099475 23.249477 62.009023 22.948088 C 62.918572 22.641317 63.946523 22.452949 65.087495 22.37222 C 66.23385 22.296873 67.380204 22.259199 68.537322 22.259199 C 68.574996 22.065449 68.623433 21.785588 68.682634 21.419616 C 68.741836 21.059025 68.774127 20.741491 68.774127 20.467011 C 68.774127 20.117185 68.682634 19.788886 68.494266 19.487497 C 68.31128 19.180727 67.92378 19.030032 67.337148 19.030032 C 66.653641 19.030032 66.147739 19.229164 65.824822 19.63281 C 65.501905 20.031074 65.292009 20.515449 65.195134 21.085935 L 60.911107 21.085935 Z M 68.214405 23.631595 L 67.686975 23.631595 C 67.116489 23.631595 66.632114 23.706942 66.23385 23.857636 C 65.835586 24.002949 65.512669 24.196699 65.2651 24.428123 C 65.022912 24.664928 64.839926 24.928643 64.721523 25.22465 C 64.608502 25.515275 64.549301 25.8059 64.549301 26.096525 C 64.549301 26.570136 64.673086 26.925345 64.915273 27.156768 C 65.157461 27.393574 65.448086 27.506595 65.781766 27.506595 C 66.190794 27.506595 66.599822 27.361282 66.998086 27.070657 C 67.401732 26.77465 67.649301 26.381768 67.740794 25.897393 Z M 80.415273 19.266838 C 80.829683 18.873956 81.287148 18.513366 81.793051 18.179685 C 82.239753 17.905206 82.767183 17.652254 83.375343 17.420831 C 83.983503 17.184025 84.656246 17.065622 85.398954 17.065622 C 86.416142 17.065622 87.255725 17.329338 87.923086 17.846004 C 88.590447 18.362671 88.924128 19.073088 88.924128 19.966491 C 88.924128 20.219442 88.891836 20.526213 88.832635 20.892185 C 88.773433 21.252775 88.703468 21.629511 88.622739 22.022393 C 88.547392 22.415275 88.46128 22.808157 88.375169 23.211803 C 88.289058 23.610067 88.213711 23.970657 88.159892 24.277428 L 86.927426 29.998435 L 80.974996 29.998435 L 82.589579 22.34531 C 82.627253 22.092359 82.670308 21.834025 82.72951 21.57031 C 82.794093 21.306595 82.821003 21.064407 82.821003 20.849129 C 82.821003 20.558504 82.751037 20.316317 82.600343 20.133331 C 82.45503 19.944963 82.234371 19.85347 81.943746 19.85347 C 81.588537 19.85347 81.249475 19.977254 80.926558 20.230206 C 80.603641 20.488539 80.356072 20.698435 80.178468 20.876039 L 78.24635 29.998435 L 72.261627 29.998435 L 74.931072 17.388539 L 79.710239 17.388539 L 80.237669 19.266838 Z M 98.713885 17.388539 L 103.471524 17.388539 L 101.065794 28.798261 C 100.88819 29.675518 100.592183 30.488192 100.183156 31.2309 C 99.774128 31.978991 99.19826 32.619442 98.466315 33.163018 C 97.734371 33.711977 96.814058 34.142532 95.705378 34.454685 C 94.602079 34.766838 93.261975 34.928296 91.674301 34.928296 C 91.383676 34.928296 91.03385 34.922914 90.624822 34.91215 C 90.210412 34.901387 89.790621 34.890623 89.354683 34.885241 C 88.924128 34.874477 88.5151 34.858331 88.122218 34.842185 C 87.734718 34.820657 87.422565 34.804512 87.18576 34.782984 L 87.745482 32.673261 C 88.369787 32.764755 89.010239 32.818574 89.661454 32.829338 C 90.323433 32.840102 90.883155 32.840102 91.351385 32.840102 C 91.938017 32.840102 92.433155 32.786282 92.836801 32.678643 C 93.235065 32.571005 93.568746 32.404164 93.832461 32.167359 C 94.096176 31.935935 94.306072 31.623782 94.472912 31.2309 C 94.645135 30.838018 94.774301 30.359025 94.876558 29.793921 L 95.226385 27.888713 L 95.021871 27.888713 C 94.898086 28.066317 94.725864 28.276213 94.505204 28.5184 C 94.279162 28.760588 93.988537 28.997393 93.638711 29.228817 C 93.288885 29.449477 92.874475 29.637845 92.3901 29.783157 C 91.916489 29.92847 91.372912 29.998435 90.764753 29.998435 C 90.081246 29.998435 89.499996 29.896178 89.021003 29.691664 C 88.54201 29.48715 88.15451 29.201907 87.858503 28.841317 C 87.567878 28.475345 87.3526 28.050171 87.212669 27.54965 C 87.083503 27.054511 87.013537 26.510935 87.013537 25.924303 C 87.013537 25.66597 87.035065 25.27847 87.072739 24.751039 C 87.110412 24.223609 87.201905 23.626213 87.3526 22.958852 C 87.497912 22.296873 87.71319 21.618748 87.993051 20.929859 C 88.278294 20.230206 88.65503 19.600518 89.134023 19.030032 C 89.618398 18.459546 90.210412 17.991317 90.926211 17.625345 C 91.64201 17.253991 92.508503 17.065622 93.52569 17.065622 C 93.837843 17.065622 94.176905 17.097914 94.54826 17.151734 C 94.919614 17.210935 95.280204 17.318574 95.635412 17.47465 C 95.990621 17.636109 96.302774 17.86215 96.571871 18.158157 C 96.851732 18.448782 97.06701 18.825518 97.217704 19.293747 L 97.395308 19.293747 Z M 95.425517 19.939581 C 94.962669 19.939581 94.569787 20.192532 94.252253 20.693053 C 93.945482 21.188192 93.69253 21.769442 93.493399 22.431421 C 93.299649 23.0934 93.154336 23.755379 93.062843 24.417359 C 92.976732 25.068574 92.933676 25.552949 92.933676 25.85972 C 92.933676 26.252602 92.99826 26.5809 93.127426 26.849998 C 93.256593 27.113713 93.488017 27.24288 93.816315 27.24288 C 94.010065 27.24288 94.203815 27.194442 94.392183 27.097567 C 94.575169 27.000692 94.752774 26.887671 94.919614 26.763886 C 95.086454 26.63472 95.231767 26.500171 95.355551 26.360241 C 95.484718 26.225692 95.576211 26.118053 95.635412 26.042706 L 96.722565 20.908331 C 96.566489 20.693053 96.383503 20.477775 96.178989 20.262497 C 95.974475 20.04722 95.721524 19.939581 95.425517 19.939581 Z M 95.425517 19.939581 " stroke="#bfbfbf" stroke-width="2.199997" stroke-opacity="1" stroke-miterlimit="4"/></g><g fill="#000000" fill-opacity="1"><g transform="translate(8.323214, 21.411292)"><g><path d="M 0.984375 -9.15625 C 1.503906 -9.269531 1.960938 -9.394531 2.359375 -9.53125 C 2.753906 -9.675781 3.117188 -9.851562 3.453125 -10.0625 C 3.785156 -10.28125 4.101562 -10.546875 4.40625 -10.859375 C 4.71875 -11.171875 5.050781 -11.550781 5.40625 -12 L 7.59375 -12 L 6.984375 -9.15625 L 8.640625 -9.15625 L 8.359375 -7.71875 L 6.6875 -7.71875 L 5.8125 -3.578125 C 5.738281 -3.242188 5.679688 -2.945312 5.640625 -2.6875 C 5.597656 -2.4375 5.578125 -2.242188 5.578125 -2.109375 C 5.578125 -1.828125 5.675781 -1.648438 5.875 -1.578125 C 6.082031 -1.503906 6.472656 -1.46875 7.046875 -1.46875 L 6.71875 0 C 6.625 0.03125 6.472656 0.0507812 6.265625 0.0625 C 6.054688 0.0703125 5.828125 0.0859375 5.578125 0.109375 C 5.335938 0.140625 5.082031 0.15625 4.8125 0.15625 C 4.550781 0.164062 4.320312 0.171875 4.125 0.171875 C 3.769531 0.171875 3.421875 0.144531 3.078125 0.09375 C 2.742188 0.0390625 2.441406 -0.0546875 2.171875 -0.203125 C 1.898438 -0.347656 1.679688 -0.5625 1.515625 -0.84375 C 1.359375 -1.132812 1.28125 -1.519531 1.28125 -2 C 1.28125 -2.164062 1.289062 -2.375 1.3125 -2.625 C 1.332031 -2.882812 1.378906 -3.171875 1.453125 -3.484375 L 2.34375 -7.71875 L 0.6875 -7.71875 Z M 0.984375 -9.15625 "/></g></g></g><g fill="#000000" fill-opacity="1"><g transform="translate(14.495919, 21.411292)"><g><path d="M 5.78125 -7.78125 L 5.9375 -7.78125 C 6.207031 -8.050781 6.519531 -8.300781 6.875 -8.53125 C 7.175781 -8.726562 7.53125 -8.90625 7.9375 -9.0625 C 8.351562 -9.21875 8.816406 -9.296875 9.328125 -9.296875 C 10.054688 -9.296875 10.660156 -9.109375 11.140625 -8.734375 C 11.628906 -8.359375 11.875 -7.84375 11.875 -7.1875 C 11.875 -6.988281 11.851562 -6.765625 11.8125 -6.515625 C 11.769531 -6.273438 11.71875 -6.015625 11.65625 -5.734375 C 11.601562 -5.453125 11.546875 -5.171875 11.484375 -4.890625 C 11.421875 -4.617188 11.367188 -4.375 11.328125 -4.15625 L 10.421875 0 L 6.109375 0 L 7.28125 -5.546875 C 7.3125 -5.734375 7.347656 -5.921875 7.390625 -6.109375 C 7.429688 -6.304688 7.453125 -6.484375 7.453125 -6.640625 C 7.453125 -6.847656 7.394531 -7.019531 7.28125 -7.15625 C 7.175781 -7.289062 7.019531 -7.359375 6.8125 -7.359375 C 6.550781 -7.359375 6.300781 -7.265625 6.0625 -7.078125 C 5.832031 -6.898438 5.65625 -6.738281 5.53125 -6.59375 L 4.125 0 L -0.21875 0 L 2.8125 -14.296875 L 7.171875 -14.296875 Z M 5.78125 -7.78125 "/></g></g></g><g fill="#000000" fill-opacity="1"><g transform="translate(24.79821, 21.411292)"><g><path d="M 1.53125 -8.359375 C 2.257812 -8.710938 3 -8.972656 3.75 -9.140625 C 4.507812 -9.304688 5.359375 -9.390625 6.296875 -9.390625 C 7.203125 -9.390625 7.953125 -9.316406 8.546875 -9.171875 C 9.148438 -9.023438 9.628906 -8.816406 9.984375 -8.546875 C 10.335938 -8.285156 10.582031 -7.96875 10.71875 -7.59375 C 10.863281 -7.226562 10.9375 -6.8125 10.9375 -6.34375 C 10.9375 -6.070312 10.914062 -5.78125 10.875 -5.46875 C 10.84375 -5.15625 10.804688 -4.894531 10.765625 -4.6875 L 9.765625 0 L 6.34375 0 L 5.953125 -1.359375 L 5.828125 -1.359375 C 5.378906 -0.859375 4.851562 -0.476562 4.25 -0.21875 C 3.644531 0.0390625 3.046875 0.171875 2.453125 0.171875 C 2.109375 0.171875 1.769531 0.117188 1.4375 0.015625 C 1.113281 -0.078125 0.820312 -0.226562 0.5625 -0.4375 C 0.3125 -0.644531 0.109375 -0.90625 -0.046875 -1.21875 C -0.203125 -1.539062 -0.28125 -1.929688 -0.28125 -2.390625 C -0.28125 -3.117188 -0.078125 -3.695312 0.328125 -4.125 C 0.734375 -4.5625 1.265625 -4.890625 1.921875 -5.109375 C 2.585938 -5.335938 3.332031 -5.476562 4.15625 -5.53125 C 4.988281 -5.59375 5.820312 -5.625 6.65625 -5.625 C 6.6875 -5.757812 6.722656 -5.957031 6.765625 -6.21875 C 6.804688 -6.488281 6.828125 -6.722656 6.828125 -6.921875 C 6.828125 -7.171875 6.757812 -7.40625 6.625 -7.625 C 6.488281 -7.84375 6.207031 -7.953125 5.78125 -7.953125 C 5.289062 -7.953125 4.925781 -7.804688 4.6875 -7.515625 C 4.457031 -7.234375 4.304688 -6.882812 4.234375 -6.46875 L 1.125 -6.46875 Z M 6.421875 -4.625 L 6.046875 -4.625 C 5.628906 -4.625 5.273438 -4.566406 4.984375 -4.453125 C 4.691406 -4.347656 4.457031 -4.207031 4.28125 -4.03125 C 4.101562 -3.863281 3.972656 -3.675781 3.890625 -3.46875 C 3.804688 -3.257812 3.765625 -3.046875 3.765625 -2.828125 C 3.765625 -2.484375 3.851562 -2.226562 4.03125 -2.0625 C 4.207031 -1.894531 4.414062 -1.8125 4.65625 -1.8125 C 4.957031 -1.8125 5.253906 -1.914062 5.546875 -2.125 C 5.835938 -2.34375 6.019531 -2.628906 6.09375 -2.984375 Z M 6.421875 -4.625 "/></g></g></g><g fill="#000000" fill-opacity="1"><g transform="translate(34.376765, 21.411292)"><g><path d="M 3.234375 0 L -0.21875 0 L 2.8125 -14.296875 L 7.171875 -14.296875 L 5.78125 -7.78125 L 5.9375 -7.78125 C 6.40625 -8.320312 6.929688 -8.707031 7.515625 -8.9375 C 8.109375 -9.175781 8.695312 -9.296875 9.28125 -9.296875 C 9.78125 -9.296875 10.195312 -9.222656 10.53125 -9.078125 C 10.863281 -8.929688 11.128906 -8.726562 11.328125 -8.46875 C 11.523438 -8.21875 11.664062 -7.910156 11.75 -7.546875 C 11.832031 -7.191406 11.875 -6.816406 11.875 -6.421875 C 11.875 -6.222656 11.859375 -5.925781 11.828125 -5.53125 C 11.804688 -5.132812 11.742188 -4.691406 11.640625 -4.203125 C 11.535156 -3.710938 11.390625 -3.207031 11.203125 -2.6875 C 11.023438 -2.175781 10.785156 -1.707031 10.484375 -1.28125 C 10.179688 -0.851562 9.796875 -0.503906 9.328125 -0.234375 C 8.867188 0.0351562 8.320312 0.171875 7.6875 0.171875 C 7.300781 0.171875 6.925781 0.128906 6.5625 0.046875 C 6.195312 -0.0351562 5.867188 -0.148438 5.578125 -0.296875 C 5.296875 -0.441406 5.039062 -0.609375 4.8125 -0.796875 C 4.59375 -0.984375 4.4375 -1.179688 4.34375 -1.390625 L 4.1875 -1.390625 Z M 5.640625 -1.890625 C 5.984375 -1.890625 6.265625 -2.070312 6.484375 -2.4375 C 6.710938 -2.800781 6.894531 -3.226562 7.03125 -3.71875 C 7.175781 -4.207031 7.28125 -4.695312 7.34375 -5.1875 C 7.414062 -5.675781 7.453125 -6.039062 7.453125 -6.28125 C 7.453125 -6.5625 7.40625 -6.789062 7.3125 -6.96875 C 7.21875 -7.15625 7.050781 -7.25 6.8125 -7.25 C 6.53125 -7.25 6.265625 -7.144531 6.015625 -6.9375 C 5.773438 -6.738281 5.597656 -6.566406 5.484375 -6.421875 L 4.65625 -2.625 C 4.757812 -2.445312 4.890625 -2.28125 5.046875 -2.125 C 5.210938 -1.96875 5.410156 -1.890625 5.640625 -1.890625 Z M 5.640625 -1.890625 "/></g></g></g><g fill="#000000" fill-opacity="1"><g transform="translate(44.65777, 21.411292)"><g><path d="M 1.53125 -8.359375 C 2.257812 -8.710938 3 -8.972656 3.75 -9.140625 C 4.507812 -9.304688 5.359375 -9.390625 6.296875 -9.390625 C 7.203125 -9.390625 7.953125 -9.316406 8.546875 -9.171875 C 9.148438 -9.023438 9.628906 -8.816406 9.984375 -8.546875 C 10.335938 -8.285156 10.582031 -7.96875 10.71875 -7.59375 C 10.863281 -7.226562 10.9375 -6.8125 10.9375 -6.34375 C 10.9375 -6.070312 10.914062 -5.78125 10.875 -5.46875 C 10.84375 -5.15625 10.804688 -4.894531 10.765625 -4.6875 L 9.765625 0 L 6.34375 0 L 5.953125 -1.359375 L 5.828125 -1.359375 C 5.378906 -0.859375 4.851562 -0.476562 4.25 -0.21875 C 3.644531 0.0390625 3.046875 0.171875 2.453125 0.171875 C 2.109375 0.171875 1.769531 0.117188 1.4375 0.015625 C 1.113281 -0.078125 0.820312 -0.226562 0.5625 -0.4375 C 0.3125 -0.644531 0.109375 -0.90625 -0.046875 -1.21875 C -0.203125 -1.539062 -0.28125 -1.929688 -0.28125 -2.390625 C -0.28125 -3.117188 -0.078125 -3.695312 0.328125 -4.125 C 0.734375 -4.5625 1.265625 -4.890625 1.921875 -5.109375 C 2.585938 -5.335938 3.332031 -5.476562 4.15625 -5.53125 C 4.988281 -5.59375 5.820312 -5.625 6.65625 -5.625 C 6.6875 -5.757812 6.722656 -5.957031 6.765625 -6.21875 C 6.804688 -6.488281 6.828125 -6.722656 6.828125 -6.921875 C 6.828125 -7.171875 6.757812 -7.40625 6.625 -7.625 C 6.488281 -7.84375 6.207031 -7.953125 5.78125 -7.953125 C 5.289062 -7.953125 4.925781 -7.804688 4.6875 -7.515625 C 4.457031 -7.234375 4.304688 -6.882812 4.234375 -6.46875 L 1.125 -6.46875 Z M 6.421875 -4.625 L 6.046875 -4.625 C 5.628906 -4.625 5.273438 -4.566406 4.984375 -4.453125 C 4.691406 -4.347656 4.457031 -4.207031 4.28125 -4.03125 C 4.101562 -3.863281 3.972656 -3.675781 3.890625 -3.46875 C 3.804688 -3.257812 3.765625 -3.046875 3.765625 -2.828125 C 3.765625 -2.484375 3.851562 -2.226562 4.03125 -2.0625 C 4.207031 -1.894531 4.414062 -1.8125 4.65625 -1.8125 C 4.957031 -1.8125 5.253906 -1.914062 5.546875 -2.125 C 5.835938 -2.34375 6.019531 -2.628906 6.09375 -2.984375 Z M 6.421875 -4.625 "/></g></g></g><g fill="#000000" fill-opacity="1"><g transform="translate(54.236325, 21.411292)"><g><path d="M 5.703125 -7.78125 C 6.003906 -8.070312 6.335938 -8.335938 6.703125 -8.578125 C 7.023438 -8.773438 7.40625 -8.957031 7.84375 -9.125 C 8.289062 -9.300781 8.785156 -9.390625 9.328125 -9.390625 C 10.054688 -9.390625 10.660156 -9.195312 11.140625 -8.8125 C 11.628906 -8.4375 11.875 -7.925781 11.875 -7.28125 C 11.875 -7.09375 11.851562 -6.867188 11.8125 -6.609375 C 11.769531 -6.347656 11.71875 -6.070312 11.65625 -5.78125 C 11.601562 -5.5 11.546875 -5.210938 11.484375 -4.921875 C 11.421875 -4.628906 11.367188 -4.375 11.328125 -4.15625 L 10.421875 0 L 6.109375 0 L 7.28125 -5.546875 C 7.3125 -5.734375 7.347656 -5.921875 7.390625 -6.109375 C 7.429688 -6.304688 7.453125 -6.484375 7.453125 -6.640625 C 7.453125 -6.847656 7.394531 -7.019531 7.28125 -7.15625 C 7.175781 -7.289062 7.019531 -7.359375 6.8125 -7.359375 C 6.550781 -7.359375 6.300781 -7.265625 6.0625 -7.078125 C 5.832031 -6.898438 5.65625 -6.75 5.53125 -6.625 L 4.125 0 L -0.21875 0 L 1.71875 -9.15625 L 5.1875 -9.15625 L 5.578125 -7.78125 Z M 5.703125 -7.78125 "/></g></g></g><g fill="#000000" fill-opacity="1"><g transform="translate(64.538616, 21.411292)"><g><path d="M 8.6875 -9.15625 L 12.125 -9.15625 L 10.390625 -0.875 C 10.253906 -0.238281 10.035156 0.347656 9.734375 0.890625 C 9.441406 1.429688 9.03125 1.898438 8.5 2.296875 C 7.96875 2.691406 7.300781 3.003906 6.5 3.234375 C 5.695312 3.460938 4.722656 3.578125 3.578125 3.578125 C 3.359375 3.578125 3.097656 3.570312 2.796875 3.5625 C 2.503906 3.550781 2.203125 3.539062 1.890625 3.53125 C 1.578125 3.53125 1.28125 3.519531 1 3.5 C 0.71875 3.488281 0.488281 3.476562 0.3125 3.46875 L 0.71875 1.9375 C 1.175781 2.007812 1.640625 2.046875 2.109375 2.046875 C 2.585938 2.054688 3 2.0625 3.34375 2.0625 C 3.769531 2.0625 4.128906 2.019531 4.421875 1.9375 C 4.710938 1.863281 4.953125 1.738281 5.140625 1.5625 C 5.328125 1.394531 5.476562 1.171875 5.59375 0.890625 C 5.71875 0.609375 5.816406 0.257812 5.890625 -0.15625 L 6.15625 -1.53125 L 6 -1.53125 C 5.914062 -1.40625 5.789062 -1.253906 5.625 -1.078125 C 5.46875 -0.898438 5.257812 -0.726562 5 -0.5625 C 4.75 -0.394531 4.445312 -0.257812 4.09375 -0.15625 C 3.75 -0.0507812 3.359375 0 2.921875 0 C 2.421875 0 1.992188 -0.0703125 1.640625 -0.21875 C 1.296875 -0.375 1.015625 -0.582031 0.796875 -0.84375 C 0.585938 -1.101562 0.429688 -1.410156 0.328125 -1.765625 C 0.234375 -2.128906 0.1875 -2.523438 0.1875 -2.953125 C 0.1875 -3.140625 0.203125 -3.425781 0.234375 -3.8125 C 0.265625 -4.195312 0.332031 -4.628906 0.4375 -5.109375 C 0.539062 -5.585938 0.695312 -6.078125 0.90625 -6.578125 C 1.113281 -7.085938 1.390625 -7.546875 1.734375 -7.953125 C 2.078125 -8.367188 2.507812 -8.710938 3.03125 -8.984375 C 3.550781 -9.253906 4.179688 -9.390625 4.921875 -9.390625 C 5.140625 -9.390625 5.382812 -9.363281 5.65625 -9.3125 C 5.925781 -9.269531 6.1875 -9.191406 6.4375 -9.078125 C 6.695312 -8.972656 6.925781 -8.8125 7.125 -8.59375 C 7.320312 -8.382812 7.476562 -8.109375 7.59375 -7.765625 L 7.71875 -7.765625 Z M 6.296875 -7.296875 C 5.953125 -7.296875 5.664062 -7.113281 5.4375 -6.75 C 5.21875 -6.394531 5.035156 -5.972656 4.890625 -5.484375 C 4.753906 -5.003906 4.648438 -4.523438 4.578125 -4.046875 C 4.515625 -3.578125 4.484375 -3.226562 4.484375 -3 C 4.484375 -2.71875 4.53125 -2.476562 4.625 -2.28125 C 4.71875 -2.09375 4.882812 -2 5.125 -2 C 5.269531 -2 5.410156 -2.035156 5.546875 -2.109375 C 5.679688 -2.179688 5.804688 -2.257812 5.921875 -2.34375 C 6.046875 -2.4375 6.15625 -2.53125 6.25 -2.625 C 6.34375 -2.726562 6.410156 -2.8125 6.453125 -2.875 L 7.234375 -6.59375 C 7.117188 -6.75 6.988281 -6.90625 6.84375 -7.0625 C 6.695312 -7.21875 6.515625 -7.296875 6.296875 -7.296875 Z M 6.296875 -7.296875 "/></g></g></g><g clip-path="url(#a704d69e1b)"><path stroke-linecap="butt" transform="matrix(0.725806, 0, 0, 0.725806, 119.164895, -0.362901)" fill="none" stroke-linejoin="miter" d="M 20.304929 20.703817 L 23.383401 17.388539 L 26.75788 17.388539 L 21.451283 22.845831 L 25.23479 29.998435 L 19.018644 29.998435 L 16.962741 26.123435 L 13.093123 29.998435 L 9.724026 29.998435 L 15.854061 24.013713 L 12.355797 17.388539 L 18.545033 17.388539 Z M 30.745901 17.388539 L 31.62854 26.010414 L 36.262394 17.388539 L 39.367776 17.388539 L 32.301283 29.998435 C 31.596248 31.2309 30.885832 32.178123 30.159269 32.840102 C 29.438089 33.512845 28.652325 34.002602 27.796596 34.309373 C 26.946248 34.626907 26.00979 34.804512 24.981839 34.852949 C 23.953887 34.901387 22.786005 34.928296 21.478193 34.928296 L 21.919512 32.904685 C 22.559964 32.904685 23.162741 32.893921 23.722464 32.872393 C 24.282186 32.850866 24.723505 32.797046 25.051804 32.700171 C 25.509269 32.581768 25.832186 32.366491 26.025936 32.05972 C 26.225068 31.763713 26.321943 31.317011 26.321943 30.73038 C 26.321943 30.337498 26.284269 29.890796 26.214304 29.384893 C 26.144339 28.873609 26.074373 28.335414 25.999026 27.775692 L 24.562047 17.388539 Z M 35.024547 27.716491 L 42.860658 19.352949 L 36.902846 19.352949 L 37.290346 17.388539 L 49.631144 17.388539 L 49.168297 19.503643 L 41.542082 28.039407 L 48.021943 28.039407 L 47.672117 29.998435 L 34.58861 29.998435 Z M 35.024547 27.716491 " stroke="#bfbfbf" stroke-width="2.199997" stroke-opacity="1" stroke-miterlimit="4"/></g><g fill="#000000" fill-opacity="1"><g transform="translate(127.432285, 21.411292)"><g><path d="M 6.46875 -6.75 L 8.703125 -9.15625 L 11.15625 -9.15625 L 7.296875 -5.1875 L 10.046875 0 L 5.53125 0 L 4.046875 -2.8125 L 1.234375 0 L -1.21875 0 L 3.234375 -4.34375 L 0.703125 -9.15625 L 5.1875 -9.15625 Z M 6.46875 -6.75 "/></g></g></g><g fill="#000000" fill-opacity="1"><g transform="translate(136.138091, 21.411292)"><g><path d="M 5.34375 -9.15625 L 5.984375 -2.890625 L 9.34375 -9.15625 L 11.59375 -9.15625 L 6.46875 0 C 5.957031 0.894531 5.4375 1.582031 4.90625 2.0625 C 4.382812 2.539062 3.816406 2.894531 3.203125 3.125 C 2.585938 3.351562 1.90625 3.484375 1.15625 3.515625 C 0.414062 3.554688 -0.429688 3.578125 -1.390625 3.578125 L -1.0625 2.109375 C -0.59375 2.109375 -0.160156 2.097656 0.234375 2.078125 C 0.640625 2.066406 0.96875 2.023438 1.21875 1.953125 C 1.539062 1.867188 1.769531 1.71875 1.90625 1.5 C 2.050781 1.28125 2.125 0.957031 2.125 0.53125 C 2.125 0.25 2.097656 -0.0703125 2.046875 -0.4375 C 2.003906 -0.8125 1.953125 -1.207031 1.890625 -1.625 L 0.84375 -9.15625 Z M 5.34375 -9.15625 "/></g></g></g><g fill="#000000" fill-opacity="1"><g transform="translate(144.971614, 21.411292)"><g><path d="M -0.390625 -1.65625 L 5.296875 -7.71875 L 0.984375 -7.71875 L 1.25 -9.15625 L 10.21875 -9.15625 L 9.875 -7.625 L 4.34375 -1.421875 L 9.046875 -1.421875 L 8.796875 0 L -0.703125 0 Z M -0.390625 -1.65625 "/></g></g></g></svg>